HIERARCHY
ROOT Hips
{
	OFFSET -3.958830 18.904000 13.208200
	CHANNELS 6 Xposition Yposition Zposition Zrotation Yrotation Xrotation 
	JOINT LHipJoint
	{
		OFFSET 0.000000 0.000000 0.000000
		CHANNELS 3 Zrotation Yrotation Xrotation
		JOINT LeftUpLeg
		{
			OFFSET 1.800000 -1.400000 0.085000
			CHANNELS 3 Zrotation Yrotation Xrotation
			JOINT LeftLeg
			{
				OFFSET 2.215000 -6.000000 0.000000
				CHANNELS 3 Zrotation Yrotation Xrotation
				JOINT LeftFoot
				{
					OFFSET 2.500000 -6.900000 0.000000
					CHANNELS 3 Zrotation Yrotation Xrotation
					JOINT LeftToeBase
					{
						OFFSET 0.200000 -0.500000 1.950000
						CHANNELS 3 Zrotation Yrotation Xrotation
						End Site
						{
							OFFSET 0.000000 0.000000 0.000000
						}
					}
				}
			}
		}
	}
	JOINT RHipJoint
	{
		OFFSET 0.000000 0.000000 0.000000
		CHANNELS 3 Zrotation Yrotation Xrotation
		JOINT RightUpLeg
		{
			OFFSET -1.800000 -1.400000 0.085000
			CHANNELS 3 Zrotation Yrotation Xrotation
			JOINT RightLeg
			{
				OFFSET -2.215000 -6.000000 0.000000
				CHANNELS 3 Zrotation Yrotation Xrotation
				JOINT RightFoot
				{
					OFFSET -2.500000 -6.900000 0.000000
					CHANNELS 3 Zrotation Yrotation Xrotation
					JOINT RightToeBase
					{
						OFFSET -0.200000 -0.500000 1.950000
						CHANNELS 3 Zrotation Yrotation Xrotation
						End Site
						{
							OFFSET 0.000000 0.000000 0.000000
						}
					}
				}
			}
		}
	}
	JOINT LowerBack
	{
		OFFSET 0.000000 0.000000 0.000000
		CHANNELS 3 Zrotation Yrotation Xrotation
		JOINT Spine
		{
			OFFSET -0.087000 1.940000 -0.288900
			CHANNELS 3 Zrotation Yrotation Xrotation
			JOINT Spine1
			{
				OFFSET 0.000000 1.950000 0.060000
				CHANNELS 3 Zrotation Yrotation Xrotation
				JOINT Neck
				{
					OFFSET 0.000000 0.000000 0.000000
					CHANNELS 3 Zrotation Yrotation Xrotation
					JOINT Neck1
					{
						OFFSET 0.000000 1.600000 0.340000
						CHANNELS 3 Zrotation Yrotation Xrotation
						JOINT Head
						{
							OFFSET 0.000000 1.667000 -0.240000
							CHANNELS 3 Zrotation Yrotation Xrotation
							End Site
							{
								OFFSET 0.000000 0.000000 0.000000
							}
						}
					}
				}
				JOINT LeftShoulder
				{
					OFFSET 0.000000 0.000000 0.000000
					CHANNELS 3 Zrotation Yrotation Xrotation
					JOINT LeftArm
					{
						OFFSET 2.700000 1.550000 -0.730000
						CHANNELS 3 Zrotation Yrotation Xrotation
						JOINT LeftForeArm
						{
							OFFSET 5.450000 0.000000 0.000000
							CHANNELS 3 Zrotation Yrotation Xrotation
							JOINT LeftHand
							{
								OFFSET 3.450000 0.000000 0.000000
								CHANNELS 3 Zrotation Yrotation Xrotation
								JOINT LeftHandIndex1
								{
									OFFSET 0.750000 0.000000 0.000000
									CHANNELS 3 Zrotation Yrotation Xrotation
									End Site
									{
										OFFSET 0.000000 0.000000 0.000000
									}
								}
							}
						}
					}
				}
				JOINT RightShoulder
				{
					OFFSET 0.000000 0.000000 0.000000
					CHANNELS 3 Zrotation Yrotation Xrotation
					JOINT RightArm
					{
						OFFSET -2.700000 1.550000 -0.730000
						CHANNELS 3 Zrotation Yrotation Xrotation
						JOINT RightForeArm
						{
							OFFSET -5.450000 0.000000 0.000000
							CHANNELS 3 Zrotation Yrotation Xrotation
							JOINT RightHand
							{
								OFFSET -3.450000 0.000000 0.000000
								CHANNELS 3 Zrotation Yrotation Xrotation
								JOINT RightHandIndex1
								{
									OFFSET -0.750000 0.000000 0.000000
									CHANNELS 3 Zrotation Yrotation Xrotation
									End Site
									{
										OFFSET 0.000000 0.000000 0.000000
									}
								}
							}
						}
					}
				}
			}
		}
	}
}
MOTION
Frames: 10
Frame Time: 0.016667
0.021280 16.737650 3.988490 -174.503122 -24.408827 164.292490 -15.661637 14.974141 2.091149 13.847803 4.728418 7.409144 3.391878 7.472049 19.638451 0.240314 5.926788 2.644050 0.286000 0.300240 0.045670 17.768828 -9.628789 3.489636 -3.196541 2.224725 -7.523430 9.614360 -1.799777 -3.508790 -0.158605 -3.217473 3.357088 0.330560 0.212720 0.004910 -2.597826 -5.093249 -7.679236 9.576452 -13.583777 19.900251 -18.759701 -7.812245 18.191747 11.785574 -4.788323 -9.880229 -9.345224 2.193813 27.226995 0.610170 -1.334620 -8.760130 -13.928548 -14.873678 4.619102 -13.296600 -13.965480 -7.738889 115.838854 -32.720654 -56.102509 -3.986489 2.879925 0.033840 0.131530 -0.138970 0.142020 -8.848278 15.867581 6.218878 -34.744224 -6.650192 -4.942584 -46.639750 4.863910 -3.012732 2.740629 -1.911322 -0.122020 0.244440 -0.003480 -0.023500 
0.023850 16.715640 3.843930 -175.937662 -20.112800 166.230811 -15.569475 14.706742 2.212825 12.192342 4.144169 8.085528 1.849673 7.687494 20.637145 0.270204 6.010806 2.603909 0.294010 0.304020 0.058700 17.841618 -9.946127 3.406087 -2.840368 1.843361 -9.641997 10.375260 -2.446624 -1.061573 -0.111166 -3.078425 3.387212 0.326180 0.193150 0.005540 -2.816726 -4.226944 -7.699901 8.845715 -10.324112 18.472560 -15.291314 -5.760890 15.299377 10.449506 -4.291442 -9.978743 -8.811766 2.755271 30.320900 0.890550 -1.264030 -7.943530 -14.590972 -14.615163 4.531719 -10.119076 -9.905217 -7.699095 103.586505 -33.836387 -44.388647 -3.936147 2.865889 0.044610 0.118890 -0.124640 0.138050 -5.639480 17.059177 5.696798 -34.621703 -1.664749 -6.885349 -56.520846 10.605023 -5.907395 2.579187 -1.889697 -0.113590 0.233390 -0.009550 -0.027960 
0.020320 16.724480 3.711890 -176.682486 -17.039442 167.423251 -15.507807 14.565188 2.315398 11.074105 3.652124 8.007724 0.641888 7.962529 21.921502 0.285244 6.099785 2.548722 0.307540 0.314830 0.093120 17.874297 -10.200319 3.334433 -2.407106 1.750169 -11.302547 11.012300 -3.122631 2.032076 -0.085916 -2.976478 3.399443 0.321280 0.150460 0.009950 -2.918454 -3.655478 -7.711035 8.402213 -7.913800 17.114630 -12.066446 -4.469829 13.402391 9.270647 -4.129837 -10.155070 -8.799589 3.236297 33.428181 0.228210 -0.792920 -7.789560 -14.951288 -14.647585 4.396225 -6.552352 -6.655256 -7.497754 89.568486 -33.317107 -32.746814 -3.884199 2.885038 0.070020 0.098850 -0.091630 0.122500 -2.892184 18.338997 5.505192 -33.598806 3.046105 -8.233275 -66.792226 17.670181 -10.739296 2.440938 -1.809766 -0.101610 0.219240 -0.018340 -0.044380 
0.029400 16.739140 3.580210 -177.575278 -15.414483 168.527999 -15.479164 14.560259 2.304079 9.986344 3.474738 6.341587 0.427765 8.307910 24.740525 0.299924 6.213669 2.480200 0.310150 0.315130 0.114060 17.875079 -10.346850 3.310188 -2.517469 1.932129 -12.370993 11.602341 -3.578684 4.378648 -0.081638 -2.953499 3.391029 0.307760 0.123010 0.011580 -2.940089 -3.441199 -7.688629 7.359827 -6.489629 15.847016 -9.633881 -4.242135 11.691807 7.828658 -4.278975 -10.234145 -9.366830 4.062773 35.870237 0.051700 -0.154400 -7.452610 -14.358994 -14.025391 4.194559 -2.548514 -3.822346 -6.501578 70.382687 -31.970361 -20.894677 -3.832836 2.932162 0.090270 0.081410 -0.064700 0.112570 -0.547165 18.507499 5.305141 -31.683538 6.829626 -8.181406 -76.311535 25.630193 -17.525569 2.329717 -1.687691 -0.092160 0.210020 -0.024860 -0.052550 
0.045510 16.739960 3.452790 -178.580220 -13.850200 169.313603 -15.478797 14.598698 2.273476 9.129503 3.296172 3.946200 0.178286 9.085112 29.172929 0.366968 6.599426 2.323263 0.289240 0.289970 0.103420 17.856234 -10.425439 3.272595 -2.793255 2.135676 -13.056664 12.013085 -3.983642 6.588204 -0.068102 -2.998929 3.368354 0.285990 0.128590 0.017580 -2.879085 -3.420194 -7.637495 5.804000 -5.439819 15.080960 -7.207282 -4.255391 10.753877 6.355915 -5.022144 -10.604009 -10.908454 5.248217 36.726661 -0.239200 0.614240 -6.470880 -12.917488 -13.439432 4.490690 0.928650 -1.159817 -5.028355 52.530681 -26.829003 -11.435573 -3.833858 3.023142 0.085520 0.089040 -0.067530 0.106950 1.092333 18.964432 5.256874 -29.423669 9.913928 -7.796003 -87.261905 33.299333 -27.323665 2.223558 -1.546183 -0.089410 0.198010 -0.016030 -0.050860 
0.073950 16.739920 3.328220 -179.745882 -12.573987 169.764877 -15.495861 14.585094 2.243937 8.490316 2.914114 0.779152 0.181104 10.187112 35.195464 0.510503 7.283406 2.062341 0.277080 0.282680 0.093070 17.838663 -10.485677 3.202517 -2.956304 2.146177 -13.176422 11.679712 -4.208404 8.155341 -0.060602 -3.042329 3.351527 0.272150 0.136830 0.023370 -2.786190 -3.373383 -7.549437 3.319035 -4.465379 14.592172 -4.861087 -4.306968 11.008092 4.852188 -5.256809 -11.017441 -11.339675 6.190042 37.012096 -0.050190 1.282650 -5.678420 -10.747790 -13.035873 5.254411 4.414191 0.865390 -2.974223 36.121727 -18.458703 -4.647989 -3.861296 3.078081 0.067570 0.097960 -0.070170 0.108080 2.110602 19.039488 5.190501 -26.540516 13.546119 -6.882546 -99.953809 40.543980 -41.811754 2.123093 -1.347268 -0.078300 0.184810 -0.017460 -0.040240 
0.087140 16.734710 3.222630 179.578300 -11.925839 169.886138 -15.525054 14.550406 2.274776 8.530512 2.156975 -3.150069 0.465027 11.418226 41.955550 0.682059 8.213011 1.712669 0.301650 0.314900 0.114390 17.817453 -10.455874 3.124892 -3.199684 2.203651 -13.012861 11.838798 -4.473889 9.591586 -0.083466 -3.128282 3.311742 0.288740 0.118880 0.024040 -2.680996 -3.452935 -7.518066 1.458628 -3.677054 15.146245 -2.558437 -4.300121 11.367344 3.701471 -5.399613 -11.371678 -11.443674 6.497777 35.762729 -0.105300 1.609530 -6.642520 -8.920386 -12.762511 6.088066 6.868995 1.671346 -0.928439 22.919132 -10.556810 -1.348250 -3.893512 3.042576 0.069380 0.087510 -0.055480 0.112320 2.675309 19.111960 5.043977 -24.173379 16.133091 -6.015460 -111.580290 43.975549 -56.723409 2.093066 -1.246972 -0.069200 0.183180 -0.035210 -0.041800 
0.090170 16.724020 3.119800 179.127641 -11.396921 169.837580 -15.538975 14.351241 2.424909 9.048534 1.208416 -7.101409 -0.250985 13.187173 48.019230 0.893444 9.276668 1.326590 0.305060 0.312820 0.122770 17.825300 -10.430642 3.025792 -3.382491 2.132654 -12.656896 11.900504 -4.747693 10.724663 -0.108397 -3.217944 3.271416 0.281380 0.097830 0.022850 -2.637334 -3.306264 -7.554040 -0.025427 -2.553119 15.441209 -0.747153 -3.659226 12.035477 2.885591 -4.669435 -11.975441 -10.025025 6.152492 35.903019 0.556110 1.326540 -7.230770 -6.841630 -13.278557 7.041685 8.354556 1.732285 0.439432 12.313294 -4.944304 -0.271758 -3.928002 2.945364 0.090050 0.066120 -0.040750 0.105420 2.248576 19.326950 5.192694 -20.942209 18.336585 -4.519389 -121.316701 48.764654 -75.674100 2.130371 -1.173034 -0.065860 0.175610 -0.037710 -0.047850 
0.084860 16.706620 3.008230 178.811643 -10.572916 169.902489 -15.527409 14.062621 2.645251 9.774880 0.354813 -10.911287 -1.167306 15.087128 53.056592 1.105870 10.300020 0.979119 0.292790 0.286600 0.124650 17.863089 -10.421991 2.929848 -3.501764 2.119617 -12.499679 12.130970 -5.122262 12.153818 -0.130131 -3.346647 3.219379 0.262670 0.090450 0.026390 -2.672397 -2.998778 -7.636566 -0.677145 -1.564314 15.546569 0.127292 -2.829454 11.775740 2.491452 -3.834707 -12.196416 -8.370729 5.629130 36.155353 0.776960 1.103400 -7.208200 -5.563044 -13.140008 7.417524 7.836889 2.304817 0.856005 7.673325 -3.532481 -0.200649 -3.937746 2.897086 0.105120 0.058310 -0.036420 0.098300 1.687496 18.778280 5.195347 -17.189056 19.346727 -2.780168 -132.446931 53.263311 -98.956675 2.244476 -1.372623 -0.069420 0.166890 -0.032980 -0.055250 
0.067820 16.681770 2.893810 178.517278 -10.003784 170.098009 -15.474982 13.750137 2.840810 10.240562 -0.311006 -14.143680 -1.645573 16.372720 56.497571 1.254984 11.010918 0.749267 0.280810 0.276190 0.101010 17.938077 -10.470059 2.845961 -4.014134 2.100402 -12.503820 12.558134 -5.557985 13.602250 -0.143932 -3.532887 3.149635 0.260330 0.109800 0.027530 -2.835349 -2.551137 -7.696710 -0.288844 -0.904198 15.568405 -0.161986 -2.090553 11.184277 2.137754 -3.532094 -11.898708 -7.565354 5.175544 35.424714 1.336990 0.462990 -7.081840 -4.928873 -12.711312 7.508760 6.700189 2.869605 0.956855 6.151419 -3.595964 -0.214242 -3.940196 2.907318 0.090860 0.066460 -0.051960 0.102200 1.635158 18.297367 4.651741 -13.926610 20.531916 -1.800081 -144.318028 55.875055 -120.833940 2.280382 -1.687860 -0.070760 0.168120 -0.023850 -0.043400 
